<svg id="Layer_1" data-name="Layer 1" xmlns="http://www.w3.org/2000/svg" viewBox="0 0 1125 2436"><defs><style>.cls-1{fill:none;stroke:#f7c623;stroke-miterlimit:10;stroke-width:12px;}</style></defs><title>CrystalGame</title><polygon class="cls-1" points="483.42 562.59 606.67 591.93 712.31 671.16 597.87 721.05 459.95 583.13 483.42 562.59"/><path class="cls-1" d="M625.73,1013.8l44,377.77h58.69L766.6,960.21,754.86,740.12l-36-63.74a.91.91,0,0,0-1.69.54l8.38,83.75L614,913.26Z"/><polyline class="cls-1" points="458.48 581.66 370.45 687.3 364.58 942.6 584.66 860.44 596.4 719.58"/><path class="cls-1" d="M364.58,942.6l-77.31,126a2.57,2.57,0,0,0,1.67,3.86l125.52,25.68L614,913.26l-29.35-52.82"/><path class="cls-1" d="M370.45,687.3,285.35,790v478.31L542.1,1816.84a.46.46,0,0,0,.87-.28L414.46,1098.13"/><polyline class="cls-1" points="669.76 1391.57 543.58 1820 702.04 1479.61 728.45 1397.44"/><line class="cls-1" x1="725.52" y1="760.67" x2="754.86" y2="740.12"/></svg>