<svg id="Layer_1" data-name="Layer 1" xmlns="http://www.w3.org/2000/svg" viewBox="0 0 1125 2436"><defs><style>.cls-1{fill:none;stroke:#f26433;stroke-miterlimit:10;stroke-width:12px;}</style></defs><title>CrystalGame</title><polygon class="cls-1" points="795.47 945.99 763.4 875.45 526.12 846.59 356.17 904.31 478.02 981.27 795.47 945.99"/><path class="cls-1" d="M689.74,1420.48l210.83-201.25a.52.52,0,0,1,.86.3l6.24,43.7a.51.51,0,0,1-.1.38L769.85,1439.76l-.08.08-117.25,95.07a.51.51,0,0,1-.8-.56l37.89-113.67A.46.46,0,0,1,689.74,1420.48Z"/><polyline class="cls-1" points="353.5 904.5 218.29 1093.49 250.36 1340.4 429.92 1285.89 478.02 981.27"/><line class="cls-1" x1="795.47" y1="945.99" x2="901.29" y2="1218.55"/><line class="cls-1" x1="429.92" y1="1285.89" x2="689.65" y2="1420.56"/><polyline class="cls-1" points="250.36 1343.61 378.62 1484.69 651.17 1536"/></svg>