<svg id="Layer_1" data-name="Layer 1" xmlns="http://www.w3.org/2000/svg" viewBox="0 0 1125 2436"><defs><style>.cls-1{fill:none;stroke:#f42c72;stroke-miterlimit:10;stroke-width:12px;}</style></defs><title>CrystalGame</title><path class="cls-1" d="M526.44,637,786.19,785.88,743,956.27,523,640.77A2.65,2.65,0,0,1,526.44,637Z"/><path class="cls-1" d="M873.78,1442.25l-96,160.79v133.27a.32.32,0,0,0,.6.17l172.19-272.64"/><path class="cls-1" d="M787.39,784.68,948.18,1459l-74.4-16.79-132-484.78L633.8,1567l-102-142.82a32.29,32.29,0,0,1-6-18.66L523.4,640.69c0-.52.2-.48,0,0L175.61,1458.61a.27.27,0,0,0,.28.38l346.73-42.75a1.08,1.08,0,0,1,.89,1.85L303.33,1633.54a.55.55,0,0,0,.26.93L773.26,1746a1.6,1.6,0,0,0,1.62-2.55L633.8,1567l144,36"/><line class="cls-1" x1="175.42" y1="1459.04" x2="302.61" y2="1634.23"/></svg>